<svg xmlns='http://www.w3.org/2000/svg' width='300' height='150'><g><ellipse cx='150.0' cy='75.0' rx='165' ry='93' fill='#C1432A' opacity='0.22'/><g transform="translate(50,35) rotate(-12) scale(1.15)">
    <path d="M0,-26 C15,-27 27,-16 26,-2 C26,8 20,16 11,20 C13,25 11,29 6,29 C0,29 -4,24 -9,20 C-18,17 -25,8 -24,-3 C-23,-16 -12,-25 0,-26 Z" fill="#F7EEDD" stroke="#8a5a2e" stroke-width="3.4"/>
    <path d="M-4,-22 C6,-24 16,-16 15,-6 C15,2 10,8 3,11" fill="none" stroke="#F0DCB8" stroke-width="4.2" opacity="0.75" stroke-linecap="round"/></g><g transform="translate(115,28) scale(1.0)"><circle r="10" fill="#151009"/><circle r="5" fill="#8a6a4a"/><ellipse rx="2.8" ry="2" cx="-2.4" cy="-2.4" fill="#5a5048" opacity="0.55"/></g><g transform="translate(180,32) rotate(15) scale(1.0)">
    <path d="M0,-26 C15,-27 27,-16 26,-2 C26,8 20,16 11,20 C13,25 11,29 6,29 C0,29 -4,24 -9,20 C-18,17 -25,8 -24,-3 C-23,-16 -12,-25 0,-26 Z" fill="#F7EEDD" stroke="#8a5a2e" stroke-width="3.4"/>
    <path d="M-4,-22 C6,-24 16,-16 15,-6 C15,2 10,8 3,11" fill="none" stroke="#F0DCB8" stroke-width="4.2" opacity="0.75" stroke-linecap="round"/></g><g transform="translate(250,40) rotate(20) scale(1.0)"><ellipse rx="11" ry="8.5" fill="#151009"/><ellipse rx="4" ry="3.4" cx="-3.3" cy="-2.6" fill="#4a4038" opacity="0.6"/></g><g transform="translate(30,90) rotate(-15) scale(1.0)"><ellipse rx="11" ry="8.5" fill="#151009"/><ellipse rx="4" ry="3.4" cx="-3.3" cy="-2.6" fill="#4a4038" opacity="0.6"/></g><g transform="translate(105,88) rotate(-6) scale(1.2)">
    <path d="M0,-26 C15,-27 27,-16 26,-2 C26,8 20,16 11,20 C13,25 11,29 6,29 C0,29 -4,24 -9,20 C-18,17 -25,8 -24,-3 C-23,-16 -12,-25 0,-26 Z" fill="#F7EEDD" stroke="#8a5a2e" stroke-width="3.4"/>
    <path d="M-4,-22 C6,-24 16,-16 15,-6 C15,2 10,8 3,11" fill="none" stroke="#F0DCB8" stroke-width="4.2" opacity="0.75" stroke-linecap="round"/></g><g transform="translate(190,95) scale(1.0)"><circle r="10" fill="#151009"/><circle r="5" fill="#8a6a4a"/><ellipse rx="2.8" ry="2" cx="-2.4" cy="-2.4" fill="#5a5048" opacity="0.55"/></g><g transform="translate(255,100) rotate(22) scale(0.95)">
    <path d="M0,-26 C15,-27 27,-16 26,-2 C26,8 20,16 11,20 C13,25 11,29 6,29 C0,29 -4,24 -9,20 C-18,17 -25,8 -24,-3 C-23,-16 -12,-25 0,-26 Z" fill="#F7EEDD" stroke="#8a5a2e" stroke-width="3.4"/>
    <path d="M-4,-22 C6,-24 16,-16 15,-6 C15,2 10,8 3,11" fill="none" stroke="#F0DCB8" stroke-width="4.2" opacity="0.75" stroke-linecap="round"/></g><g transform="translate(70,130) rotate(10) scale(1.0)"><ellipse rx="11" ry="8.5" fill="#151009"/><ellipse rx="4" ry="3.4" cx="-3.3" cy="-2.6" fill="#4a4038" opacity="0.6"/></g><g transform="translate(160,128) rotate(-20) scale(0.9)">
    <path d="M0,-26 C15,-27 27,-16 26,-2 C26,8 20,16 11,20 C13,25 11,29 6,29 C0,29 -4,24 -9,20 C-18,17 -25,8 -24,-3 C-23,-16 -12,-25 0,-26 Z" fill="#F7EEDD" stroke="#8a5a2e" stroke-width="3.4"/>
    <path d="M-4,-22 C6,-24 16,-16 15,-6 C15,2 10,8 3,11" fill="none" stroke="#F0DCB8" stroke-width="4.2" opacity="0.75" stroke-linecap="round"/></g><g transform="translate(225,130) scale(1.0)"><circle r="10" fill="#151009"/><circle r="5" fill="#8a6a4a"/><ellipse rx="2.8" ry="2" cx="-2.4" cy="-2.4" fill="#5a5048" opacity="0.55"/></g></g></svg>