<svg xmlns='http://www.w3.org/2000/svg' width='300' height='150'><g><ellipse cx='150.0' cy='75.0' rx='165' ry='93' fill='#C1432A' opacity='0.2'/><circle cx="35" cy="30" r="14" fill="#8A2E1C"/><circle cx="35" cy="30" r="8" fill="#D5602F"/><circle cx="100" cy="20" r="12" fill="#8A2E1C"/><circle cx="100" cy="20" r="7" fill="#D5602F"/><circle cx="165" cy="28" r="13" fill="#8A2E1C"/><circle cx="165" cy="28" r="8" fill="#D5602F"/><circle cx="230" cy="22" r="11" fill="#8A2E1C"/><circle cx="230" cy="22" r="7" fill="#D5602F"/><circle cx="60" cy="75" r="13" fill="#8A2E1C"/><circle cx="60" cy="75" r="8" fill="#D5602F"/><circle cx="140" cy="70" r="15" fill="#8A2E1C"/><circle cx="140" cy="70" r="9" fill="#D5602F"/><circle cx="205" cy="78" r="12" fill="#8A2E1C"/><circle cx="205" cy="78" r="7" fill="#D5602F"/><circle cx="265" cy="68" r="11" fill="#8A2E1C"/><circle cx="265" cy="68" r="7" fill="#D5602F"/><circle cx="90" cy="125" r="12" fill="#8A2E1C"/><circle cx="90" cy="125" r="7" fill="#D5602F"/><circle cx="180" cy="130" r="13" fill="#8A2E1C"/><circle cx="180" cy="130" r="8" fill="#D5602F"/><circle cx="45" cy="120" r="10" fill="#8A2E1C"/><circle cx="45" cy="120" r="6" fill="#D5602F"/><circle cx="240" cy="120" r="11" fill="#8A2E1C"/><circle cx="240" cy="120" r="7" fill="#D5602F"/><path transform="translate(115,45) rotate(20)" d="M-11,7 Q-15,-9 3,-15" fill="none" stroke="#5f8a3e" stroke-width="7" stroke-linecap="round" opacity="0.9"/><path transform="translate(210,50) rotate(-30)" d="M-11,7 Q-15,-9 3,-15" fill="none" stroke="#6b9945" stroke-width="7" stroke-linecap="round" opacity="0.9"/><path transform="translate(150,100) rotate(60)" d="M-11,7 Q-15,-9 3,-15" fill="none" stroke="#5f8a3e" stroke-width="7" stroke-linecap="round" opacity="0.9"/></g></svg>