<svg xmlns='http://www.w3.org/2000/svg' width='300' height='150'><g>
  <ellipse cx='150.0' cy='75.0' rx='165' ry='93' fill='#C1432A' opacity='0.22'/>  <g transform="translate(120,105) rotate(-8)"><circle r="16" fill="#B23A22"/><circle r="12.5" fill="#D8583A"/><g stroke="#F2B99A" stroke-width="1.3" opacity="0.85"><line x1="0" y1="-9" x2="0" y2="9"/><line x1="-8" y1="-5" x2="8" y2="5"/><line x1="-8" y1="5" x2="8" y2="-5"/></g></g>
  <g transform="translate(155,115) rotate(14)"><circle r="16" fill="#B23A22"/><circle r="12.5" fill="#D8583A"/><g stroke="#F2B99A" stroke-width="1.3" opacity="0.85"><line x1="0" y1="-9" x2="0" y2="9"/><line x1="-8" y1="-5" x2="8" y2="5"/><line x1="-8" y1="5" x2="8" y2="-5"/></g></g>
  <g fill='#5F7A45'><path d='M95 55c9-12 26-12 32-3 3 9-11 18-23 16-8-1-13-8-9-13z'/><path d='M210 45c7-9 20-9 25-2 2 8-9 15-19 13-6-1-9-6-6-11z'/></g>

  <g>
    <circle cx="45" cy="40" r="9" fill="#221A16"/><circle cx="45" cy="40" r="4.5" fill="#4A3F35"/>
    <circle cx="178" cy="25" r="10" fill="#221A16"/><circle cx="178" cy="25" r="5.5" fill="#4A3F35"/>
    <circle cx="230" cy="85" r="11" fill="#221A16"/><circle cx="230" cy="85" r="6.5" fill="#4A3F35"/>
    <circle cx="68" cy="115" r="9" fill="#221A16"/><circle cx="68" cy="115" r="4.5" fill="#4A3F35"/>
    <circle cx="250" cy="55" r="10" fill="#221A16"/><circle cx="250" cy="55" r="5.5" fill="#4A3F35"/>
  </g>
</g></svg>