<svg xmlns='http://www.w3.org/2000/svg' width='300' height='150'><g><rect x='0' y='0' width='300' height='150' fill='#E5210D' opacity='0.22'/><g transform="translate(203.3,54.1) rotate(179)"><circle r="19" fill="#5C1D14"/><circle r="11" fill="#8B2F1F"/><circle cx="1.5" cy="1.5" r="1.5" fill="#E8D9C0" opacity="0.85"/><circle cx="-0.8" cy="5.0" r="1.6" fill="#E8D9C0" opacity="0.85"/><circle cx="-1.1" cy="4.5" r="1.2" fill="#2A1810" opacity="0.7"/></g><g transform="translate(219.8,24.0) rotate(19)"><circle r="19" fill="#5C1D14"/><circle r="11" fill="#8B2F1F"/><circle cx="2.7" cy="-5.1" r="1.9" fill="#E8D9C0" opacity="0.85"/><circle cx="-3.4" cy="-2.1" r="1.5" fill="#E8D9C0" opacity="0.85"/><circle cx="4.2" cy="3.3" r="1.2" fill="#2A1810" opacity="0.7"/></g><g transform="translate(117.5,68.4) rotate(97)"><circle r="19" fill="#5C1D14"/><circle r="11" fill="#8B2F1F"/><circle cx="-0.0" cy="0.2" r="1.8" fill="#E8D9C0" opacity="0.85"/><circle cx="3.2" cy="-5.4" r="1.5" fill="#E8D9C0" opacity="0.85"/><circle cx="-1.0" cy="-0.7" r="1.3" fill="#E8D9C0" opacity="0.85"/><circle cx="-0.4" cy="-2.6" r="1.2" fill="#2A1810" opacity="0.7"/></g><g transform="translate(139.5,133.2) rotate(6)"><circle r="19" fill="#5C1D14"/><circle r="11" fill="#8B2F1F"/><circle cx="0.1" cy="-2.2" r="2.0" fill="#E8D9C0" opacity="0.85"/><circle cx="-2.7" cy="4.9" r="1.5" fill="#E8D9C0" opacity="0.85"/><circle cx="-4.9" cy="5.8" r="1.9" fill="#E8D9C0" opacity="0.85"/><circle cx="5.3" cy="5.5" r="1.2" fill="#2A1810" opacity="0.7"/></g><g transform="translate(120.5,15.3) rotate(170)"><circle r="19" fill="#5C1D14"/><circle r="11" fill="#8B2F1F"/><circle cx="5.8" cy="-0.3" r="1.9" fill="#E8D9C0" opacity="0.85"/><circle cx="1.5" cy="2.2" r="1.9" fill="#E8D9C0" opacity="0.85"/><circle cx="-2.7" cy="-4.0" r="1.2" fill="#2A1810" opacity="0.7"/></g><g transform="translate(46.6,32.1) rotate(5)"><circle r="19" fill="#5C1D14"/><circle r="11" fill="#8B2F1F"/><circle cx="-1.9" cy="-5.9" r="1.4" fill="#E8D9C0" opacity="0.85"/><circle cx="-3.3" cy="-1.1" r="1.9" fill="#E8D9C0" opacity="0.85"/><circle cx="-4.0" cy="2.2" r="1.2" fill="#2A1810" opacity="0.7"/></g><g transform="translate(26.1,112.8) rotate(293)"><circle r="19" fill="#5C1D14"/><circle r="11" fill="#8B2F1F"/><circle cx="4.9" cy="-1.1" r="1.5" fill="#E8D9C0" opacity="0.85"/><circle cx="-4.5" cy="3.3" r="1.3" fill="#E8D9C0" opacity="0.85"/><circle cx="0.8" cy="-4.2" r="1.2" fill="#2A1810" opacity="0.7"/></g><g transform="translate(62.3,119.4) rotate(324)"><circle r="19" fill="#5C1D14"/><circle r="11" fill="#8B2F1F"/><circle cx="-0.8" cy="-0.9" r="1.9" fill="#E8D9C0" opacity="0.85"/><circle cx="1.4" cy="-3.7" r="1.4" fill="#E8D9C0" opacity="0.85"/><circle cx="-2.3" cy="2.3" r="1.2" fill="#2A1810" opacity="0.7"/></g><g transform="translate(134.7,98.5) rotate(295)"><circle r="19" fill="#5C1D14"/><circle r="11" fill="#8B2F1F"/><circle cx="3.8" cy="2.0" r="1.4" fill="#E8D9C0" opacity="0.85"/><circle cx="-1.7" cy="-5.8" r="1.5" fill="#E8D9C0" opacity="0.85"/><circle cx="0.3" cy="-3.8" r="1.7" fill="#E8D9C0" opacity="0.85"/><circle cx="1.7" cy="-3.3" r="1.2" fill="#2A1810" opacity="0.7"/></g><g transform="translate(169.3,53.8) rotate(346)"><circle r="19" fill="#5C1D14"/><circle r="11" fill="#8B2F1F"/><circle cx="-4.4" cy="5.6" r="1.9" fill="#E8D9C0" opacity="0.85"/><circle cx="-1.2" cy="0.1" r="1.7" fill="#E8D9C0" opacity="0.85"/><circle cx="-2.8" cy="-4.5" r="1.2" fill="#2A1810" opacity="0.7"/></g><g transform="translate(223.4,134.3) rotate(59)"><circle r="19" fill="#5C1D14"/><circle r="11" fill="#8B2F1F"/><circle cx="2.2" cy="-3.2" r="1.3" fill="#E8D9C0" opacity="0.85"/><circle cx="-2.6" cy="-1.3" r="1.6" fill="#E8D9C0" opacity="0.85"/><circle cx="0.2" cy="1.4" r="1.2" fill="#2A1810" opacity="0.7"/></g><g transform="translate(244.3,108.9) rotate(284)"><circle r="19" fill="#5C1D14"/><circle r="11" fill="#8B2F1F"/><circle cx="-1.9" cy="3.7" r="1.8" fill="#E8D9C0" opacity="0.85"/><circle cx="-2.8" cy="5.7" r="1.7" fill="#E8D9C0" opacity="0.85"/><circle cx="1.6" cy="-0.8" r="1.5" fill="#E8D9C0" opacity="0.85"/><circle cx="1.1" cy="3.7" r="1.2" fill="#2A1810" opacity="0.7"/></g><path transform="translate(69.7,62.7) rotate(67)" d="M-8.35,4 Q-4.175,-8 8.35,-6 Q4.175,2 -8.35,4 Z" fill="#5A8A38" opacity="0.92"/><path transform="translate(99.1,109.0) rotate(124) scale(0.72)" d="M-11,7 Q-15,-9 3,-15" fill="none" stroke="#6b9945" stroke-width="5.5" stroke-linecap="round" opacity="0.9"/><path transform="translate(138.5,40.9) rotate(271)" d="M-8.5,4 Q-4.25,-8 8.5,-6 Q4.25,2 -8.5,4 Z" fill="#4E7A2E" opacity="0.92"/><path transform="translate(230.2,77.6) rotate(164)" d="M-8.5,4 Q-4.25,-8 8.5,-6 Q4.25,2 -8.5,4 Z" fill="#4E7A2E" opacity="0.92"/><path transform="translate(15.2,26.9) rotate(96) scale(0.72)" d="M-11,7 Q-15,-9 3,-15" fill="none" stroke="#6b9945" stroke-width="5.5" stroke-linecap="round" opacity="0.9"/><path transform="translate(274.8,104.7) rotate(131)" d="M-8.8,4 Q-4.4,-8 8.8,-6 Q4.4,2 -8.8,4 Z" fill="#5A8A38" opacity="0.92"/><path transform="translate(261.6,66.8) rotate(271) scale(0.72)" d="M-11,7 Q-15,-9 3,-15" fill="none" stroke="#6b9945" stroke-width="5.5" stroke-linecap="round" opacity="0.9"/><path transform="translate(179.4,82.6) rotate(288)" d="M-8.3,4 Q-4.15,-8 8.3,-6 Q4.15,2 -8.3,4 Z" fill="#5A8A38" opacity="0.92"/><path transform="translate(81.1,25.6) rotate(334) scale(0.72)" d="M-11,7 Q-15,-9 3,-15" fill="none" stroke="#6b9945" stroke-width="5.5" stroke-linecap="round" opacity="0.9"/><path transform="translate(186.4,120.1) rotate(298) scale(0.72)" d="M-11,7 Q-15,-9 3,-15" fill="none" stroke="#6b9945" stroke-width="5.5" stroke-linecap="round" opacity="0.9"/><path transform="translate(212.5,104.4) rotate(51)" d="M-8.2,4 Q-4.1,-8 8.2,-6 Q4.1,2 -8.2,4 Z" fill="#5A8A38" opacity="0.92"/><path transform="translate(256.2,32.0) rotate(137)" d="M-9.6,4 Q-4.8,-8 9.6,-6 Q4.8,2 -9.6,4 Z" fill="#4E7A2E" opacity="0.92"/></g></svg>